<svg version="1.1" id="Layer_1" xmlns="http://www.w3.org/2000/svg" xmlns:xlink="http://www.w3.org/1999/xlink" x="0px" y="0px"
	 width="100%" viewBox="0 0 242 208" enable-background="new 0 0 242 208" xml:space="preserve">
<path fill="#000000" opacity="1.000000" stroke="none" 
	d="
M142.000000,209.000000 
	C94.666672,209.000000 47.833340,209.000000 1.000006,209.000000 
	C1.000004,139.666672 1.000004,70.333344 1.000002,1.000016 
	C81.666656,1.000010 162.333313,1.000010 242.999969,1.000005 
	C242.999985,70.333321 242.999985,139.666641 243.000000,208.999969 
	C209.500000,209.000000 176.000000,209.000000 142.000000,209.000000 
M40.213833,149.762466 
	C41.080627,150.506943 41.846092,151.440979 42.829769,151.966782 
	C53.535210,157.689362 64.270660,163.355896 75.006187,169.022064 
	C88.892349,176.351089 102.870514,183.512375 116.623947,191.082214 
	C120.649269,193.297745 123.810875,193.253082 127.811378,191.119995 
	C143.225906,182.900909 158.836029,175.049683 174.326935,166.972549 
	C184.941040,161.438232 195.478485,155.756943 206.656693,149.883804 
	C206.723953,149.258041 206.791199,148.632263 207.022034,147.217255 
	C206.969818,146.147278 206.917603,145.077316 207.000626,143.076416 
	C206.951462,115.381767 206.902298,87.687111 206.943878,59.445869 
	C206.644165,59.247868 206.344437,59.049870 205.747421,58.196251 
	C201.782455,56.118195 197.816498,54.042000 193.852676,51.961781 
	C172.572403,40.793926 151.226639,29.747889 130.060165,18.368355 
	C124.906883,15.597844 120.462784,15.326898 115.662949,18.668350 
	C113.994606,19.829779 111.932968,20.409479 110.114418,21.374456 
	C87.780327,33.225536 65.449860,45.083584 43.154655,57.007488 
	C41.927090,57.664017 41.017857,58.915756 39.188511,60.315613 
	C39.178097,64.868835 39.167683,69.422058 39.000145,74.868286 
	C39.052513,77.582802 39.104881,80.297310 39.011135,83.796471 
	C39.059853,84.856087 39.108570,85.915703 39.001167,87.648186 
	C39.053188,88.102722 39.105213,88.557251 39.011143,89.796440 
	C39.059795,90.856079 39.108452,91.915726 38.999729,93.903954 
	C39.052231,100.939926 39.104729,107.975891 39.011211,115.887039 
	C39.059883,118.249794 39.108555,120.612549 39.001102,123.648193 
	C39.053135,124.102745 39.105164,124.557289 39.011086,125.873253 
	C39.059788,127.907341 39.108490,129.941422 39.000088,132.888626 
	C39.052383,136.593353 39.104675,140.298080 39.011223,144.795853 
	C39.327263,146.235291 39.643303,147.674744 40.213833,149.762466 
z"/>
<path fill="#D3F3E6" opacity="1.000000" stroke="none" 
	d="
M206.865387,144.007339 
	C206.917603,145.077316 206.969818,146.147278 206.724060,147.603821 
	C206.426071,147.990372 205.993378,147.991440 205.608719,148.045578 
	C200.149307,150.074844 194.827057,151.580978 190.042496,154.105972 
	C168.867599,165.280792 147.881577,176.813385 126.710640,187.995834 
	C124.869446,188.968353 121.715065,189.222549 119.953712,188.305862 
	C101.664223,178.786911 83.630051,168.776367 65.318970,159.300430 
	C57.126987,155.061111 48.468967,151.722336 40.020111,147.578644 
	C40.024155,146.124268 40.030537,145.066147 40.444206,143.981873 
	C41.565289,142.194824 42.890575,140.437378 42.900593,138.672501 
	C43.037582,114.533791 42.924519,90.393524 43.115055,66.255547 
	C43.131325,64.194328 44.308178,61.196362 45.903851,60.251709 
	C54.334576,55.260654 63.060970,50.766994 71.706184,46.140743 
	C86.654312,38.141670 101.768158,30.434368 116.480530,22.023973 
	C120.689407,19.617952 122.887459,18.167503 128.124359,21.185343 
	C150.433914,34.041542 173.228348,46.083214 196.143463,57.842117 
	C201.617264,60.651012 203.248627,63.695133 203.153534,69.621193 
	C202.784943,92.589401 203.008835,115.567032 202.997406,138.541153 
	C202.996017,141.307465 202.807556,144.142548 206.865387,144.007339 
M157.029419,88.162895 
	C157.044083,86.432770 157.058762,84.702637 157.695541,82.678612 
	C170.633652,75.819519 183.571762,68.960419 197.361267,61.649967 
	C173.153122,48.806103 149.976746,36.509651 126.005547,23.791498 
	C126.005547,37.090954 126.005547,49.039162 125.145882,61.000790 
	C123.425278,60.987957 121.704681,60.975124 119.992508,60.029743 
	C119.992508,48.188107 119.992508,36.346470 119.992508,23.546917 
	C95.658798,36.509022 72.531944,48.828255 48.659981,61.544399 
	C52.088665,63.506096 54.329449,64.907455 56.673023,66.108192 
	C66.411041,71.097488 76.180069,76.026276 85.977776,81.842850 
	C85.950829,83.576096 85.923889,85.309341 85.155701,87.003044 
	C72.398720,80.673019 59.641743,74.342987 46.379345,67.762161 
	C46.379345,92.531517 46.379345,116.317139 46.379345,140.771851 
	C57.505184,134.952988 68.042152,129.392349 78.635284,123.940811 
	C80.954391,122.747322 83.473648,121.942734 85.964981,121.825737 
	C85.955208,123.558441 85.945427,125.291145 85.241196,127.112503 
	C73.175880,133.475601 61.110569,139.838699 47.853207,146.830475 
	C72.458138,160.056961 95.706818,172.554382 119.983551,185.604431 
	C119.983551,172.200241 119.983551,160.119431 120.741959,148.011047 
	C121.750610,148.010941 122.759262,148.010818 124.235115,148.360641 
	C124.864433,149.093430 125.493744,149.826233 126.058655,151.555222 
	C126.058655,162.559113 126.058655,173.562988 126.058655,185.450958 
	C150.672394,172.248184 174.051987,159.707413 198.423401,146.634613 
	C191.132812,143.053574 184.790085,139.938110 178.583908,136.110336 
	C179.015381,134.742432 179.446854,133.374542 180.649475,132.014191 
	C186.858597,134.918564 193.067719,137.822952 199.579254,140.868790 
	C199.579254,116.012329 199.579254,91.820160 199.579254,67.091270 
	C193.005096,70.467636 186.974106,73.551720 180.955322,76.659462 
	C172.989838,80.772369 165.033920,84.903793 157.029419,88.162895 
z"/>
<path fill="#E7F9F2" opacity="1.000000" stroke="none" 
	d="
M206.933014,143.541870 
	C202.807556,144.142548 202.996017,141.307465 202.997406,138.541153 
	C203.008835,115.567032 202.784943,92.589401 203.153534,69.621193 
	C203.248627,63.695133 201.617264,60.651012 196.143463,57.842117 
	C173.228348,46.083214 150.433914,34.041542 128.124359,21.185343 
	C122.887459,18.167503 120.689407,19.617952 116.480530,22.023973 
	C101.768158,30.434368 86.654312,38.141670 71.706184,46.140743 
	C63.060970,50.766994 54.334576,55.260654 45.903851,60.251709 
	C44.308178,61.196362 43.131325,64.194328 43.115055,66.255547 
	C42.924519,90.393524 43.037582,114.533791 42.900593,138.672501 
	C42.890575,140.437378 41.565289,142.194824 40.223900,143.978607 
	C39.596310,144.001495 39.156967,144.002808 39.156967,144.002808 
	C39.104675,140.298080 39.052383,136.593353 39.306557,132.143616 
	C39.461079,129.269699 39.309135,127.140770 39.157192,125.011841 
	C39.105164,124.557289 39.053135,124.102745 39.310310,123.012161 
	C39.465420,119.921379 39.311325,117.466621 39.157227,115.011864 
	C39.104729,107.975891 39.052231,100.939926 39.291683,93.205658 
	C39.441502,91.342163 39.299370,90.176979 39.157238,89.011787 
	C39.105213,88.557251 39.053188,88.102722 39.292450,87.077728 
	C39.441570,85.342125 39.299412,84.176971 39.157249,83.011826 
	C39.104881,80.297310 39.052513,77.582802 39.320175,74.091324 
	C39.746956,68.839729 39.853703,64.365089 39.960449,59.890446 
	C41.017857,58.915756 41.927090,57.664017 43.154655,57.007488 
	C65.449860,45.083584 87.780327,33.225536 110.114418,21.374456 
	C111.932968,20.409479 113.994606,19.829779 115.662949,18.668350 
	C120.462784,15.326898 124.906883,15.597844 130.060165,18.368355 
	C151.226639,29.747889 172.572403,40.793926 193.852676,51.961781 
	C197.816498,54.042000 201.782455,56.118195 205.981049,58.747246 
	C206.355392,59.595947 206.568207,59.827354 206.853134,59.992458 
	C206.902298,87.687111 206.951462,115.381767 206.933014,143.541870 
z"/>
<path fill="#E7F9F2" opacity="1.000000" stroke="none" 
	d="
M40.022446,147.974869 
	C48.468967,151.722336 57.126987,155.061111 65.318970,159.300430 
	C83.630051,168.776367 101.664223,178.786911 119.953712,188.305862 
	C121.715065,189.222549 124.869446,188.968353 126.710640,187.995834 
	C147.881577,176.813385 168.867599,165.280792 190.042496,154.105972 
	C194.827057,151.580978 200.149307,150.074844 205.612534,148.404388 
	C206.017395,149.186478 206.033798,149.663910 206.050186,150.141342 
	C195.478485,155.756943 184.941040,161.438232 174.326935,166.972549 
	C158.836029,175.049683 143.225906,182.900909 127.811378,191.119995 
	C123.810875,193.253082 120.649269,193.297745 116.623947,191.082214 
	C102.870514,183.512375 88.892349,176.351089 75.006187,169.022064 
	C64.270660,163.355896 53.535210,157.689362 42.829769,151.966782 
	C41.846092,151.440979 41.080627,150.506943 40.100616,149.153397 
	C39.999081,148.354507 40.010761,148.164688 40.022446,147.974869 
z"/>
<path fill="#F1FBF7" opacity="1.000000" stroke="none" 
	d="
M39.574478,60.103027 
	C39.853703,64.365089 39.746956,68.839729 39.398735,73.644821 
	C39.167683,69.422058 39.178097,64.868835 39.574478,60.103027 
z"/>
<path fill="#F1FBF7" opacity="1.000000" stroke="none" 
	d="
M39.084221,115.449448 
	C39.311325,117.466621 39.465420,119.921379 39.388371,122.675720 
	C39.108555,120.612549 39.059883,118.249794 39.084221,115.449448 
z"/>
<path fill="#F1FBF7" opacity="1.000000" stroke="none" 
	d="
M39.084137,125.442551 
	C39.309135,127.140770 39.461079,129.269699 39.385109,131.687073 
	C39.108490,129.941422 39.059788,127.907341 39.084137,125.442551 
z"/>
<path fill="#F1FBF7" opacity="1.000000" stroke="none" 
	d="
M40.020111,147.578644 
	C40.010761,148.164688 39.999081,148.354507 39.973370,148.829254 
	C39.643303,147.674744 39.327263,146.235291 39.084095,144.399323 
	C39.156967,144.002808 39.596310,144.001495 39.816612,144.004761 
	C40.030537,145.066147 40.024155,146.124268 40.020111,147.578644 
z"/>
<path fill="#F1FBF7" opacity="1.000000" stroke="none" 
	d="
M39.084190,89.404114 
	C39.299370,90.176979 39.441502,91.342163 39.370369,92.741364 
	C39.108452,91.915726 39.059795,90.856079 39.084190,89.404114 
z"/>
<path fill="#F1FBF7" opacity="1.000000" stroke="none" 
	d="
M39.084190,83.404144 
	C39.299412,84.176971 39.441570,85.342125 39.370510,86.741295 
	C39.108570,85.915703 39.059853,84.856087 39.084190,83.404144 
z"/>
<path fill="#F1FBF7" opacity="1.000000" stroke="none" 
	d="
M206.353439,150.012573 
	C206.033798,149.663910 206.017395,149.186478 205.997192,148.350250 
	C205.993378,147.991440 206.426071,147.990372 206.642273,147.998444 
	C206.791199,148.632263 206.723953,149.258041 206.353439,150.012573 
z"/>
<path fill="#F1FBF7" opacity="1.000000" stroke="none" 
	d="
M206.898499,59.719162 
	C206.568207,59.827354 206.355392,59.595947 206.129700,59.075050 
	C206.344437,59.049870 206.644165,59.247868 206.898499,59.719162 
z"/>
<path fill="#3FC803" opacity="1.000000" stroke="none" 
	d="
M179.878311,132.006638 
	C179.446854,133.374542 179.015381,134.742432 178.350113,136.755554 
	C175.540970,144.902054 170.856674,150.775970 163.934814,154.571609 
	C150.481247,161.948868 137.890350,159.788940 126.123055,150.559021 
	C125.493744,149.826233 124.864433,149.093430 123.905334,147.911591 
	C122.776016,146.621857 121.976479,145.781174 121.093063,144.584351 
	C119.329865,139.487289 117.650536,134.746353 116.028732,129.668457 
	C116.012848,128.884033 115.939430,128.436584 115.931519,127.568100 
	C116.996666,122.432564 117.996292,117.718056 119.234734,112.829201 
	C119.677185,112.111084 119.880821,111.567307 120.348236,110.825165 
	C121.313568,109.504555 122.015129,108.382301 122.947021,107.093964 
	C124.170273,105.741341 125.163193,104.554802 126.479889,103.232452 
	C135.020752,96.140663 144.476044,93.892410 155.305817,95.814247 
	C156.066025,95.990936 156.513824,96.035492 157.218201,96.318909 
	C159.005081,97.158577 160.610886,97.617027 162.053925,98.382332 
	C175.577866,105.554672 180.778168,117.171394 179.878311,132.006638 
M154.323196,124.814491 
	C151.259399,128.260437 148.195602,131.706390 144.931671,135.377441 
	C141.117447,132.366241 137.699493,129.516724 134.085770,126.941956 
	C133.359360,126.424408 131.889267,126.950615 130.762070,126.995583 
	C131.049026,127.983170 131.021530,129.336761 131.674774,129.897964 
	C135.446625,133.138336 139.278076,136.335510 143.339996,139.190689 
	C144.185638,139.785095 146.647842,139.402542 147.411682,138.582352 
	C153.854523,131.664139 160.129349,124.585571 166.288467,117.412483 
	C166.976593,116.611046 166.629410,114.920639 166.762360,113.642487 
	C165.530243,114.092682 163.960968,114.209618 163.126984,115.053337 
	C160.215561,117.998734 157.558289,121.195335 154.323196,124.814491 
z"/>
<path fill="#E4F8F0" opacity="1.000000" stroke="none" 
	d="
M85.900734,120.959045 
	C83.473648,121.942734 80.954391,122.747322 78.635284,123.940811 
	C68.042152,129.392349 57.505184,134.952988 46.379345,140.771851 
	C46.379345,116.317139 46.379345,92.531517 46.379345,67.762161 
	C59.641743,74.342987 72.398720,80.673019 85.556732,87.486298 
	C85.938751,98.966049 85.919746,109.962555 85.900734,120.959045 
z"/>
<path fill="#E4F8F0" opacity="1.000000" stroke="none" 
	d="
M126.005547,60.987373 
	C126.005547,49.039162 126.005547,37.090954 126.005547,23.791498 
	C149.976746,36.509651 173.153122,48.806103 197.361267,61.649967 
	C183.571762,68.960419 170.633652,75.819519 157.361542,82.391815 
	C158.039856,74.290504 154.020309,69.246422 147.282166,66.784119 
	C140.402542,64.270111 133.114685,62.873287 126.005547,60.987373 
z"/>
<path fill="#E4F8F0" opacity="1.000000" stroke="none" 
	d="
M119.983551,148.038620 
	C119.983551,160.119431 119.983551,172.200241 119.983551,185.604431 
	C95.706818,172.554382 72.458138,160.056961 47.853207,146.830475 
	C61.110569,139.838699 73.175880,133.475601 85.609795,127.491982 
	C85.165527,134.653442 88.675751,139.472214 94.409134,141.477524 
	C102.686317,144.372528 111.435669,145.917557 119.983551,148.038620 
z"/>
<path fill="#E4F8F0" opacity="1.000000" stroke="none" 
	d="
M85.937714,80.977272 
	C76.180069,76.026276 66.411041,71.097488 56.673023,66.108192 
	C54.329449,64.907455 52.088665,63.506096 48.659981,61.544399 
	C72.531944,48.828255 95.658798,36.509022 119.992508,23.546917 
	C119.992508,36.346470 119.992508,48.188107 119.556061,60.517273 
	C112.831512,62.158066 106.288498,62.573536 100.315056,64.637489 
	C91.352608,67.734222 85.019577,72.262154 85.937714,80.977272 
z"/>
<path fill="#E3F8EF" opacity="1.000000" stroke="none" 
	d="
M180.263885,132.010406 
	C180.778168,117.171394 175.577866,105.554672 162.053925,98.382332 
	C160.610886,97.617027 159.005081,97.158577 157.230286,95.876839 
	C157.015152,93.139687 157.044525,91.083473 157.073883,89.027252 
	C165.033920,84.903793 172.989838,80.772369 180.955322,76.659462 
	C186.974106,73.551720 193.005096,70.467636 199.579254,67.091270 
	C199.579254,91.820160 199.579254,116.012329 199.579254,140.868790 
	C193.067719,137.822952 186.858597,134.918564 180.263885,132.010406 
z"/>
<path fill="#E3F8EE" opacity="1.000000" stroke="none" 
	d="
M126.090851,151.057129 
	C137.890350,159.788940 150.481247,161.948868 163.934814,154.571609 
	C170.856674,150.775970 175.540970,144.902054 178.281830,137.111694 
	C184.790085,139.938110 191.132812,143.053574 198.423401,146.634613 
	C174.051987,159.707413 150.672394,172.248184 126.058655,185.450958 
	C126.058655,173.562988 126.058655,162.559113 126.090851,151.057129 
z"/>
<path fill="#C4CFCE" opacity="1.000000" stroke="none" 
	d="
M157.051651,88.595078 
	C157.044525,91.083473 157.015152,93.139687 156.973694,95.637970 
	C156.513824,96.035492 156.066025,95.990936 155.306366,95.389420 
	C154.873734,92.305717 154.752975,89.778992 154.594543,86.464172 
	C152.366074,87.694092 151.108414,88.399742 149.839844,89.085152 
	C148.533478,89.790977 147.273209,90.626610 145.895554,91.149200 
	C127.439255,98.150345 109.307899,98.431168 91.816528,88.190254 
	C89.172279,86.642090 89.045296,88.008957 88.995834,90.441650 
	C88.945595,95.318596 88.073341,100.411667 92.697433,102.918907 
	C97.488808,105.516861 102.874001,107.019608 108.289711,109.268135 
	C112.414780,110.031105 116.249619,110.527321 120.084457,111.023529 
	C119.880821,111.567307 119.677185,112.111084 118.785141,112.829010 
	C115.398232,113.002205 112.699715,113.001251 109.729568,112.738754 
	C106.641960,111.983261 103.825981,111.489319 100.793762,110.732292 
	C97.009239,108.453728 93.440979,106.438255 89.878792,104.426216 
	C87.827286,107.807625 88.439171,114.812225 91.152695,118.292679 
	C92.866905,119.726440 94.427818,120.866295 96.211472,122.274109 
	C102.911476,124.357758 109.388741,126.173447 115.866005,127.989128 
	C115.939430,128.436584 116.012848,128.884033 115.592728,129.666916 
	C106.585182,127.914322 98.071159,125.826302 89.506409,123.725838 
	C87.163734,132.215317 88.956261,136.639297 97.495033,140.717102 
	C104.969093,144.286423 112.925522,145.535675 121.176933,144.940491 
	C121.976479,145.781174 122.776016,146.621857 123.671738,147.736618 
	C122.759262,148.010818 121.750610,148.010941 120.362755,148.024841 
	C111.435669,145.917557 102.686317,144.372528 94.409134,141.477524 
	C88.675751,139.472214 85.165527,134.653442 85.957024,127.447655 
	C85.945427,125.291145 85.955208,123.558441 85.932861,121.392395 
	C85.919746,109.962555 85.938751,98.966049 85.927353,87.506073 
	C85.923889,85.309341 85.950829,83.576096 85.957748,81.410065 
	C85.019577,72.262154 91.352608,67.734222 100.315056,64.637489 
	C106.288498,62.573536 112.831512,62.158066 119.551849,60.983543 
	C121.704681,60.975124 123.425278,60.987957 125.575714,60.994080 
	C133.114685,62.873287 140.402542,64.270111 147.282166,66.784119 
	C154.020309,69.246422 158.039856,74.290504 157.050491,82.538773 
	C157.058762,84.702637 157.044083,86.432770 157.051651,88.595078 
M126.891251,93.005112 
	C134.927124,93.333366 142.257172,90.993134 149.057724,86.917809 
	C155.690475,82.943031 155.846527,75.049652 149.469711,70.698929 
	C142.393433,65.871002 134.457947,64.021385 125.146210,64.001343 
	C123.430077,64.001678 121.713936,64.002022 119.086426,63.999664 
	C108.777245,64.089172 98.800774,65.193237 91.184143,73.320618 
	C88.350601,76.344170 88.040710,81.524338 90.909622,84.063416 
	C93.105370,86.006721 95.639671,88.022736 98.369667,88.818588 
	C105.474098,90.889679 112.769127,92.306931 120.794975,93.994263 
	C122.529671,93.664513 124.264359,93.334763 126.891251,93.005112 
z"/>
<path fill="#CEDCD8" opacity="1.000000" stroke="none" 
	d="
M121.093063,144.584351 
	C112.925522,145.535675 104.969093,144.286423 97.495033,140.717102 
	C88.956261,136.639297 87.163734,132.215317 89.506409,123.725838 
	C98.071159,125.826302 106.585182,127.914322 115.535202,130.003876 
	C117.650536,134.746353 119.329865,139.487289 121.093063,144.584351 
z"/>
<path fill="#C6D9D2" opacity="1.000000" stroke="none" 
	d="
M88.996643,89.996361 
	C89.045296,88.008957 89.172279,86.642090 91.816528,88.190254 
	C109.307899,98.431168 127.439255,98.150345 145.895554,91.149200 
	C147.273209,90.626610 148.533478,89.790977 149.839844,89.085152 
	C151.108414,88.399742 152.366074,87.694092 154.594543,86.464172 
	C154.752975,89.778992 154.873734,92.305717 154.993958,95.257278 
	C144.476044,93.892410 135.020752,96.140663 126.308990,102.890381 
	C123.701065,100.105743 121.391655,100.530449 119.976234,103.025375 
	C119.592834,103.701180 121.734169,105.809334 122.716690,107.260056 
	C122.015129,108.382301 121.313568,109.504555 120.348236,110.825165 
	C116.249619,110.527321 112.414780,110.031105 108.504074,109.004539 
	C110.584869,107.157616 112.741539,105.841042 116.082741,103.801346 
	C106.258514,98.794228 97.627579,94.395294 88.996643,89.996361 
z"/>
<path fill="#F1FBED" opacity="1.000000" stroke="none" 
	d="
M154.563812,124.555481 
	C157.558289,121.195335 160.215561,117.998734 163.126984,115.053337 
	C163.960968,114.209618 165.530243,114.092682 166.762360,113.642487 
	C166.629410,114.920639 166.976593,116.611046 166.288467,117.412483 
	C160.129349,124.585571 153.854523,131.664139 147.411682,138.582352 
	C146.647842,139.402542 144.185638,139.785095 143.339996,139.190689 
	C139.278076,136.335510 135.446625,133.138336 131.674774,129.897964 
	C131.021530,129.336761 131.049026,127.983170 130.762070,126.995590 
	C131.889267,126.950615 133.359360,126.424408 134.085770,126.941956 
	C137.699493,129.516724 141.117447,132.366241 144.931671,135.377441 
	C148.195602,131.706390 151.259399,128.260437 154.563812,124.555481 
z"/>
<path fill="#CEDCD8" opacity="1.000000" stroke="none" 
	d="
M110.001205,113.000305 
	C112.699715,113.001251 115.398232,113.002205 118.546326,113.003349 
	C117.996292,117.718056 116.996666,122.432564 115.931519,127.568100 
	C109.388741,126.173447 102.911476,124.357758 96.427170,122.009903 
	C100.947159,118.651932 105.474182,115.826118 110.001205,113.000305 
z"/>
<path fill="#C4CFCE" opacity="1.000000" stroke="none" 
	d="
M122.947021,107.093964 
	C121.734169,105.809334 119.592834,103.701180 119.976234,103.025375 
	C121.391655,100.530449 123.701065,100.105743 125.985214,103.026199 
	C125.163193,104.554802 124.170273,105.741341 122.947021,107.093964 
z"/>
<path fill="#CFDCD9" opacity="1.000000" stroke="none" 
	d="
M119.988121,93.985039 
	C112.769127,92.306931 105.474098,90.889679 98.369667,88.818588 
	C95.639671,88.022736 93.105370,86.006721 90.909622,84.063416 
	C88.040710,81.524338 88.350601,76.344170 91.184143,73.320618 
	C98.800774,65.193237 108.777245,64.089172 119.542946,64.469406 
	C119.995689,74.621109 119.991905,84.303078 119.988121,93.985039 
z"/>
<path fill="#CFDCD9" opacity="1.000000" stroke="none" 
	d="
M126.004227,64.004883 
	C134.457947,64.021385 142.393433,65.871002 149.469711,70.698929 
	C155.846527,75.049652 155.690475,82.943031 149.057724,86.917809 
	C142.257172,90.993134 134.927124,93.333366 126.445381,92.535851 
	C126.001083,82.712685 126.002655,73.358788 126.004227,64.004883 
z"/>
<path fill="#CFDCD9" opacity="1.000000" stroke="none" 
	d="
M88.995834,90.441650 
	C97.627579,94.395294 106.258514,98.794228 116.082741,103.801346 
	C112.741539,105.841042 110.584869,107.157616 108.213837,108.737785 
	C102.874001,107.019608 97.488808,105.516861 92.697433,102.918907 
	C88.073341,100.411667 88.945595,95.318596 88.995834,90.441650 
z"/>
<path fill="#C6D9D2" opacity="1.000000" stroke="none" 
	d="
M125.575218,64.003113 
	C126.002655,73.358788 126.001083,82.712685 125.999283,92.535797 
	C124.264359,93.334763 122.529671,93.664513 120.391548,93.989655 
	C119.991905,84.303078 119.995689,74.621109 119.998634,64.470757 
	C121.713936,64.002022 123.430077,64.001678 125.575218,64.003113 
z"/>
<path fill="#CFDCD9" opacity="1.000000" stroke="none" 
	d="
M90.999390,117.998779 
	C88.439171,114.812225 87.827286,107.807625 89.878792,104.426216 
	C93.440979,106.438255 97.009239,108.453728 100.632248,111.033325 
	C97.457787,113.731224 94.228592,115.864998 90.999390,117.998779 
z"/>
<path fill="#C6D9D2" opacity="1.000000" stroke="none" 
	d="
M91.152695,118.292679 
	C94.228592,115.864998 97.457787,113.731224 100.848495,111.296417 
	C103.825981,111.489319 106.641960,111.983261 109.729568,112.738754 
	C105.474182,115.826118 100.947159,118.651932 96.204437,121.741951 
	C94.427818,120.866295 92.866905,119.726440 91.152695,118.292679 
z"/>
</svg>